# xmcd
#
# Track frame offsets: 
#        150
#        14728
#        31910
#        45718
#        77478
#        100418
#        112450
#        141598
#        155548
#        171518
#        179540
#
# Disc length: 2528 seconds
#
# Revision: 2
# Processed by: cddbd v1.5.2PL0 Copyright (c) Steve Scherf et al.
# Submitted via: ExactAudioCopy v0.99pb4
#
DISCID=a009de0b
DTITLE=Memphis Slim and Canned Heat - Memphis Heat
DYEAR=1988
DGENRE=Blues
TTITLE0=Back To Mother Earth
TTITLE1=Trouble Everywhere I Go
TTITLE2=Black Cat Cross My Trail
TTITLE3=Mr. Longfingers
TTITLE4=Five Long Years
TTITLE5=When I Was Young
TTITLE6=You Don't Know My Mind
TTITLE7=Boogie Duo
TTITLE8=Down The Big Road
TTITLE9=Whizzle Wham
TTITLE10=Paris
EXTD=Candid Records (Import - Germany) ARD Verve 514725-2 1973
EXTT0=
EXTT1=
EXTT2=
EXTT3=
EXTT4=
EXTT5=
EXTT6=
EXTT7=
EXTT8=
EXTT9=
EXTT10=
PLAYORDER=
